<svg xmlns="http://www.w3.org/2000/svg" viewBox="0 0 334.17 101.80" role="img" aria-labelledby="title desc" preserveAspectRatio="xMidYMid meet">
  <title>Aven wordmark, light mode</title>
  <desc>Light mode Aven wordmark with a purple A-check icon and outlined gradient text.</desc>
  <defs>
    <linearGradient id="a-gradient" x1="512" y1="184" x2="512" y2="748" gradientUnits="userSpaceOnUse">
      <stop offset="0" stop-color="#BE85FB"/>
      <stop offset="0.48" stop-color="#9E5AFB"/>
      <stop offset="1" stop-color="#7628FF"/>
    </linearGradient>
    <linearGradient id="wordmark-gradient" x1="0" y1="0" x2="1" y2="0"><stop offset="0" stop-color="#5527D2"/><stop offset="0.55" stop-color="#7628FF"/><stop offset="1" stop-color="#A875FF"/></linearGradient>
  </defs>
  <g shape-rendering="geometricPrecision">
    <g transform="translate(-15.07 -10.96) scale(0.132612)">
      <path d="M 302.95 748.89 L 236.81 749.19 L 233.54 748.64 L 228.64 746.72 L 222.93 743.19 L 220.21 740.64 L 216.43 734.93 L 214.93 730.85 L 213.72 725.13 L 213.72 721.86 L 214.93 716.15 L 217.47 709.61 L 426.89 246.61 L 434.23 231.09 L 440.08 221.3 L 449.12 210.27 L 454.02 205.51 L 461.37 199.75 L 470.35 194.16 L 485.87 187.16 L 498.93 184.32 L 507.92 183.35 L 516.08 183.35 L 529.96 185.11 L 543.03 188.89 L 549.56 191.92 L 557.73 196.66 L 566.03 202.51 L 573.56 209.05 L 581.51 218.03 L 589.32 229.46 L 594.66 240.08 L 663.25 390.33 L 664.85 396.04 L 663.8 400.94 L 662.24 403.39 L 658.17 406.94 L 584.68 464.9 L 579.78 467.29 L 575.69 467.09 L 571.61 464.79 L 568.97 460.56 L 517.72 347.57 L 516.08 345.51 L 513.63 344.44 L 511.18 344.63 L 508.49 346.23 L 505.27 351.95 L 431.72 518.53 L 428.31 525.07 L 427.07 525.84 L 425.44 525.29 L 409.93 511.73 L 406.66 509.47 L 401.76 507.7 L 397.68 507.86 L 393.59 509.47 L 344.6 540.01 L 342.15 541.95 L 340.86 543.85 L 340.21 546.3 L 340.32 548.75 L 342.6 552.83 L 351.13 561.36 L 391.53 597.74 L 393.46 600.19 L 393.61 601.82 L 348.06 703.9 L 338.16 724.31 L 330.72 734.5 L 321 742.28 L 311.12 746.92 Z M 790.46 748.87 L 723.5 749.04 L 713.7 746.39 L 707.16 743.29 L 702.26 740.14 L 696.55 735.31 L 690.44 727.58 L 684.93 717.78 L 617.97 569.16 L 617.75 566.71 L 618.97 564.86 L 698.18 497.85 L 707.16 491.02 L 708.8 491.33 L 709.61 492.23 L 712.25 497.3 L 790.65 668.78 L 811.25 715.33 L 812.07 719.41 L 811.91 728.4 L 810.95 731.66 L 808.51 736.56 L 805.52 740.64 L 801.67 743.91 L 796.99 746.7 Z" fill="url(#a-gradient)"/>
      <path d="M 487.5 668.05 L 479.34 668.2 L 470.35 665.6 L 465.37 663.07 L 453.71 654.09 L 406.66 611.99 L 344.6 554.87 L 341.33 551.23 L 340.32 548.75 L 340.32 545.48 L 341.92 542.21 L 344.6 540.01 L 393.59 509.47 L 397.68 507.86 L 401.76 507.7 L 405.84 509.04 L 409.93 511.73 L 448.31 544.93 L 478.52 569.43 L 482.6 571.6 L 486.69 571.42 L 491.59 568.62 L 543.85 526.42 L 667.15 428.45 L 670.42 426.7 L 673.68 425.96 L 676.95 426.55 L 680.22 428.48 L 681.85 430.49 L 686.12 439.32 L 706.88 485.05 L 707.43 488.32 L 706.35 490.97 L 626.32 558.82 L 569.16 606.45 L 553.65 620.06 L 510.37 655.99 L 502.28 662.25 L 496.48 665.49 Z" fill="#2A1547"/>
    </g>
    <path d="M21.20 1.20Q15.10 1.20 11.25-0.80Q7.40-2.80 5.45-6.25Q3.50-9.70 3.50-13.80Q3.50-18.50 5.90-21.95Q8.30-25.40 13.10-27.35Q17.90-29.30 25.20-29.30L37.70-29.30Q37.70-33.10 36.65-35.60Q35.60-38.10 33.30-39.35Q31-40.60 27.60-40.60Q23.60-40.60 20.70-38.75Q17.80-36.90 17.20-33L4.70-33Q5.30-38.60 8.35-42.55Q11.40-46.50 16.40-48.65Q21.40-50.80 27.70-50.80Q34.70-50.80 39.85-48.40Q45-46 47.75-41.50Q50.50-37 50.50-30.60L50.50 0L39.90 0L38.40-7.80L38.10-7.80Q36.80-5.60 35-3.95Q33.20-2.30 31.10-1.15Q29 0 26.45 0.60Q23.90 1.20 21.20 1.20M24.90-8.80Q27.80-8.80 29.95-9.80Q32.10-10.80 33.70-12.55Q35.30-14.30 36.15-16.55Q37-18.80 37.30-21.20L37.30-21.30L26.60-21.30Q23.20-21.30 21.10-20.45Q19-19.60 18-18.20Q17-16.80 17-14.90Q17-12.90 17.95-11.55Q18.90-10.20 20.65-9.50Q22.40-8.80 24.90-8.80M83.70 0L65.70 0L48.90-49.60L62.40-49.60L74.70-9.60L75-9.60L87.20-49.60L100.50-49.60L83.70 0M123.10 1.20Q115.50 1.20 109.70-2.05Q103.90-5.30 100.55-11.05Q97.20-16.80 97.20-24.40Q97.20-32.20 100.50-38.10Q103.80-44 109.60-47.40Q115.40-50.80 123.10-50.80Q130.50-50.80 136.05-47.55Q141.60-44.30 144.75-38.85Q147.90-33.40 147.90-26.50Q147.90-25.50 147.85-24.25Q147.80-23 147.70-21.70L106.40-21.70L106.40-29.70L135-29.70Q134.60-34.70 131.30-37.65Q128-40.60 123.10-40.60Q119.50-40.60 116.50-39Q113.50-37.40 111.65-34.20Q109.80-31 109.80-26L109.80-23.10Q109.80-18.80 111.55-15.70Q113.30-12.60 116.30-10.90Q119.30-9.20 123-9.20Q126.90-9.20 129.50-10.95Q132.10-12.70 133.50-15.70L146.50-15.70Q145-10.80 141.75-7Q138.50-3.20 133.75-1Q129 1.20 123.10 1.20M163.20 0L150.40 0L150.40-49.60L161.40-49.60L162.60-41.50L162.90-41.50Q165.40-45.80 169.55-48.30Q173.70-50.80 179.80-50.80Q185.90-50.80 190.20-48.20Q194.50-45.60 196.80-40.50Q199.10-35.40 199.10-28L199.10 0L186.40 0L186.40-26.80Q186.40-33.10 183.80-36.55Q181.20-40 175.60-40Q172.20-40 169.30-38.30Q166.40-36.60 164.80-33.40Q163.20-30.20 163.20-25.60" fill="url(#wordmark-gradient)" transform="translate(127.07 75.70)"/>
  </g>
</svg>
